# xmcd
#
# Track frame offsets:
#	150
#	114547
#	133622
#
# Disc length: 2093 seconds
#
# Revision: 1
# Processed by: cddbd v1.5.1PL2 Copyright (c) Steve Scherf et al.
# Submitted via: audiograbber 1.82.01
#
DISCID=22082b03
DTITLE=Γιάννης Πουλόπουλος - ΕΜΙΛΙΑΝΟ ΖΑΠΑΤΑ
DYEAR=1971
DGENRE=
TTITLE0=Εμιλιάνο Ζαπάτα
TTITLE1=Ο άνεμος στο νησί
TTITLE2=Όταν γέρνεις στα βράδια
EXTD=
EXTT0=
EXTT1=
EXTT2=
PLAYORDER=
